<svg width="118" height="136" viewBox="0 0 118 136" fill="none" xmlns="http://www.w3.org/2000/svg">
<g clip-path="url(#clip0_25_68)">
<rect width="67.6484" height="67.6484" transform="matrix(0.866514 0.499152 -0.866515 0.499152 58.9999 0.736603)" fill="#CAB641"/>
<rect width="67.6484" height="67.6484" transform="matrix(0.866514 0.499152 -0.866515 0.499152 58.9999 0.736603)" fill="white" fill-opacity="0.08" style="mix-blend-mode:overlay"/>
<rect width="67.6484" height="67.6484" transform="matrix(0.866514 0.499152 -0.866515 0.499152 58.9999 0.736603)" fill="white" fill-opacity="0.08"/>
</g>
<g clip-path="url(#clip1_25_68)">
<rect width="67.5337" height="67.6484" transform="matrix(2.20804e-08 1 -0.866514 0.499152 117.618 34.5035)" fill="#E2C561"/>
<rect width="67.5337" height="67.6484" transform="matrix(2.20804e-08 1 -0.866514 0.499152 117.618 34.5035)" fill="#DCB846" fill-opacity="0.75" style="mix-blend-mode:overlay"/>
<rect width="67.5337" height="67.6484" transform="matrix(2.20804e-08 1 -0.866514 0.499152 117.618 34.5035)" fill="black" fill-opacity="0.16" style="mix-blend-mode:darken"/>
</g>
<rect width="67.6484" height="67.5337" transform="matrix(0.866514 0.499152 -2.20804e-08 1 0.383423 34.5034)" fill="#B7A229"/>
<g filter="url(#filter0_i_25_68)">
<path d="M69.2581 77.8658V90.0172L80.475 83.5363V75.2448L81.5228 73.4243L95.1433 65.5547L96.191 66.1644V75.0278L95.1433 76.8483L87.501 81.2638L82.6321 89.7238V101.017L93.7874 94.5721V86.9239L95.1433 84.568L102.539 80.2949L107.47 71.7278V55.7881L102.539 52.9185L74.1886 69.2988L69.2581 77.8658Z" fill="white"/>
<path d="M93.7874 99.3612L82.6321 105.806V113.455L93.7874 107.009V99.3612Z" fill="white"/>
</g>
<g filter="url(#filter1_i_25_68)">
<path d="M10.8627 55.9382V68.0896L22.0796 74.5704V66.2789L23.1273 65.6691L36.7478 73.5388L37.7956 75.3593V84.2226L36.7478 84.8324L29.1055 80.4169L24.2367 83.2505V94.5442L35.3919 100.989V93.3412L36.7478 92.5521L44.1436 96.8252L49.0741 93.9556V78.0159L44.1436 69.4489L15.7932 53.0686L10.8627 55.9382Z" fill="white"/>
<path d="M35.3919 105.779L24.2367 99.3332V106.981L35.3919 113.427V105.779Z" fill="white"/>
</g>
<defs>
<filter id="filter0_i_25_68" x="69.2581" y="52.9185" width="38.2114" height="64.5361" filterUnits="userSpaceOnUse" color-interpolation-filters="sRGB">
<feFlood flood-opacity="0" result="BackgroundImageFix"/>
<feBlend mode="normal" in="SourceGraphic" in2="BackgroundImageFix" result="shape"/>
<feColorMatrix in="SourceAlpha" type="matrix" values="0 0 0 0 0 0 0 0 0 0 0 0 0 0 0 0 0 0 127 0" result="hardAlpha"/>
<feOffset dy="4"/>
<feGaussianBlur stdDeviation="2"/>
<feComposite in2="hardAlpha" operator="arithmetic" k2="-1" k3="1"/>
<feColorMatrix type="matrix" values="0 0 0 0 0 0 0 0 0 0 0 0 0 0 0 0 0 0 0.25 0"/>
<feBlend mode="normal" in2="shape" result="effect1_innerShadow_25_68"/>
</filter>
<filter id="filter1_i_25_68" x="10.8627" y="53.0686" width="38.2114" height="64.3581" filterUnits="userSpaceOnUse" color-interpolation-filters="sRGB">
<feFlood flood-opacity="0" result="BackgroundImageFix"/>
<feBlend mode="normal" in="SourceGraphic" in2="BackgroundImageFix" result="shape"/>
<feColorMatrix in="SourceAlpha" type="matrix" values="0 0 0 0 0 0 0 0 0 0 0 0 0 0 0 0 0 0 127 0" result="hardAlpha"/>
<feOffset dy="4"/>
<feGaussianBlur stdDeviation="2"/>
<feComposite in2="hardAlpha" operator="arithmetic" k2="-1" k3="1"/>
<feColorMatrix type="matrix" values="0 0 0 0 0 0 0 0 0 0 0 0 0 0 0 0 0 0 0.25 0"/>
<feBlend mode="normal" in2="shape" result="effect1_innerShadow_25_68"/>
</filter>
<clipPath id="clip0_25_68">
<rect width="67.6484" height="67.6484" fill="white" transform="matrix(0.866514 0.499152 -0.866515 0.499152 58.9999 0.736603)"/>
</clipPath>
<clipPath id="clip1_25_68">
<rect width="67.5337" height="67.6484" fill="white" transform="matrix(2.20804e-08 1 -0.866514 0.499152 117.618 34.5035)"/>
</clipPath>
</defs>
</svg>
